<svg xmlns="http://www.w3.org/2000/svg" viewBox="0 0 329 467"><path fill="#fff" fill-rule="evenodd" d="M 247,6 L194,0 L150,5 L117,14 L84,29 L62,45 L47,62 L35,85 L29,110 L30,132 L35,144 L50,160 L87,163 L95,153 L79,126 L82,92 L105,51 L118,39 L126,43 L127,167 L136,177 L119,199 L128,219 L128,261 L123,265 L107,244 L92,238 L62,235 L48,239 L20,261 L3,295 L0,311 L3,357 L18,395 L47,431 L86,455 L116,463 L155,466 L193,462 L230,450 L261,432 L289,406 L308,379 L328,332 L328,89 L299,38 L275,18 Z M 219,23 L230,32 L240,50 L252,112 L257,181 L254,305 L247,351 L231,398 L201,430 L167,442 L123,442 L99,433 L80,420 L68,406 L62,385 L72,334 L88,325 L103,329 L108,319 L105,306 L97,299 L86,297 L73,301 L63,311 L54,337 L58,372 L49,342 L49,323 L61,299 L83,281 L100,280 L125,294 L129,315 L127,388 L116,419 L129,420 L223,384 L223,377 L209,357 L205,331 L204,202 L216,188 L208,170 L205,149 L206,48 L210,30 Z"/></svg>