<svg xmlns="http://www.w3.org/2000/svg" viewBox="0 0 329 671"><path fill="#000" fill-rule="evenodd" d="M 328,563 L325,566 L325,567 L322,570 L322,571 L320,573 L320,574 L319,575 L319,576 L318,577 L318,578 L317,579 L317,580 L316,581 L316,582 L315,583 L315,584 L314,585 L314,587 L313,588 L313,590 L312,591 L312,594 L311,595 L311,598 L310,599 L310,605 L309,606 L309,620 L310,621 L310,624 L311,625 L311,626 L312,627 L312,628 L313,629 L313,630 L315,632 L316,632 L318,634 L319,634 L320,635 L323,635 L324,636 L325,635 L328,635 Z M 298,515 L284,512 L280,516 L269,537 L255,572 L253,571 L253,561 L248,535 L239,514 L233,513 L227,515 L216,522 L215,528 L219,543 L219,566 L213,597 L199,630 L185,651 L174,663 L177,667 L184,670 L191,670 L206,653 L220,623 L233,572 L237,585 L237,615 L230,642 L230,647 L233,650 L239,650 L244,645 L250,633 L270,572 L269,609 L271,625 L276,638 L281,642 L286,642 L293,638 L304,627 L307,622 L303,618 L296,621 L292,619 L287,589 L289,553 L293,534 L299,521 Z M 247,6 L194,0 L150,5 L117,14 L84,29 L62,45 L47,62 L35,85 L29,110 L30,132 L35,144 L50,160 L87,163 L95,153 L79,126 L82,92 L105,51 L118,39 L126,43 L127,167 L136,177 L119,199 L128,219 L128,261 L123,265 L107,244 L92,238 L62,235 L48,239 L20,261 L3,295 L0,311 L3,357 L18,395 L47,431 L86,455 L116,463 L155,466 L193,462 L230,450 L261,432 L289,406 L308,379 L328,332 L328,89 L299,38 L275,18 Z M 219,23 L230,32 L240,50 L252,112 L257,181 L254,305 L247,351 L231,398 L201,430 L167,442 L123,442 L99,433 L80,420 L68,406 L62,385 L72,334 L88,325 L103,329 L108,319 L105,306 L97,299 L86,297 L73,301 L63,311 L54,337 L58,372 L49,342 L49,323 L61,299 L83,281 L100,280 L125,294 L129,315 L127,388 L116,419 L129,420 L223,384 L223,377 L209,357 L205,331 L204,202 L216,188 L208,170 L205,149 L206,48 L210,30 Z"/></svg>