<svg xmlns="http://www.w3.org/2000/svg" viewBox="0 0 2048 2048" aria-hidden="true"><path fill="#fff" fill-rule="evenodd" d="M 991,1711 L981,1723 L978,1734 L978,1745 L976,1748 L976,1792 L978,1807 L982,1820 L988,1828 L997,1833 L1016,1834 L1022,1833 L1028,1828 L1043,1833 L1049,1833 L1053,1829 L1052,1794 L1054,1770 L1051,1764 L1019,1764 L1016,1767 L1016,1781 L1020,1783 L1018,1785 L1023,1791 L1029,1794 L1024,1795 L1024,1802 L1019,1808 L1022,1810 L1020,1812 L1011,1808 L1003,1798 L1006,1797 L1006,1741 L1011,1733 L1011,1730 L1013,1729 L1015,1731 L1019,1731 L1025,1738 L1024,1744 L1027,1747 L1049,1748 L1054,1744 L1054,1737 L1049,1721 L1039,1710 L1027,1706 L1007,1705 Z M 1124,1698 L1114,1699 L1110,1701 L1098,1701 L1093,1703 L1091,1706 L1090,1725 L1089,1726 L1088,1763 L1087,1764 L1087,1772 L1086,1773 L1086,1791 L1085,1792 L1084,1819 L1082,1826 L1083,1830 L1086,1832 L1104,1831 L1109,1829 L1112,1823 L1113,1815 L1119,1810 L1123,1810 L1124,1809 L1130,1809 L1133,1812 L1137,1822 L1141,1826 L1144,1826 L1150,1823 L1159,1824 L1166,1821 L1165,1810 L1157,1789 L1157,1785 L1152,1778 L1150,1768 L1148,1765 L1148,1762 L1143,1749 L1142,1742 L1138,1733 L1138,1729 L1135,1722 L1133,1720 L1133,1715 L1131,1711 L1130,1705 L1128,1701 Z M 1118,1746 L1119,1747 L1119,1749 L1120,1750 L1120,1754 L1121,1755 L1121,1756 L1122,1757 L1122,1758 L1123,1759 L1123,1764 L1124,1765 L1124,1769 L1125,1770 L1125,1773 L1126,1774 L1126,1779 L1127,1780 L1127,1782 L1128,1783 L1127,1784 L1127,1785 L1124,1788 L1123,1787 L1122,1788 L1116,1788 L1115,1789 L1113,1789 L1112,1788 L1113,1787 L1113,1784 L1112,1783 L1112,1781 L1111,1780 L1111,1774 L1109,1774 L1108,1773 L1110,1771 L1110,1770 L1111,1769 L1111,1755 L1112,1754 L1112,1750 L1113,1749 L1113,1748 L1115,1746 Z M 852,1686 L851,1687 L844,1688 L839,1691 L829,1702 L826,1708 L824,1717 L820,1727 L818,1738 L817,1739 L817,1743 L816,1744 L816,1748 L815,1749 L815,1753 L814,1754 L814,1758 L813,1759 L810,1777 L811,1778 L812,1790 L816,1799 L820,1804 L832,1811 L841,1814 L846,1814 L847,1815 L861,1815 L862,1814 L865,1814 L870,1811 L877,1804 L886,1788 L886,1783 L888,1781 L888,1778 L892,1765 L892,1761 L894,1756 L894,1752 L895,1751 L897,1731 L899,1725 L899,1712 L896,1708 L897,1705 L892,1698 L882,1691 L880,1691 L877,1689 L866,1687 L865,1686 Z M 862,1712 L863,1713 L865,1713 L869,1717 L869,1718 L871,1721 L871,1724 L870,1725 L870,1726 L869,1727 L869,1729 L868,1730 L868,1734 L869,1735 L868,1736 L868,1737 L866,1740 L866,1744 L865,1745 L865,1749 L863,1751 L863,1753 L862,1754 L862,1760 L861,1761 L861,1765 L860,1766 L860,1770 L859,1771 L859,1774 L858,1775 L858,1779 L857,1780 L857,1782 L851,1788 L851,1790 L850,1791 L849,1791 L848,1790 L846,1790 L843,1787 L843,1786 L841,1783 L841,1779 L840,1778 L840,1775 L841,1774 L841,1773 L842,1772 L842,1770 L843,1769 L843,1762 L844,1761 L844,1757 L846,1754 L846,1752 L847,1751 L847,1748 L848,1747 L848,1744 L849,1743 L848,1742 L848,1741 L849,1740 L849,1737 L850,1736 L850,1734 L851,1733 L851,1729 L852,1728 L852,1723 L853,1722 L853,1721 L854,1720 L855,1717 L859,1713 L861,1713 Z M 1226,1678 L1208,1680 L1196,1685 L1177,1688 L1171,1690 L1165,1696 L1173,1726 L1175,1725 L1177,1726 L1176,1728 L1174,1728 L1174,1730 L1177,1735 L1192,1804 L1194,1805 L1196,1812 L1200,1815 L1204,1815 L1213,1811 L1223,1810 L1227,1805 L1220,1783 L1220,1779 L1217,1776 L1218,1772 L1216,1770 L1215,1761 L1213,1759 L1214,1757 L1218,1757 L1221,1755 L1229,1758 L1234,1764 L1241,1790 L1244,1796 L1248,1800 L1255,1801 L1261,1798 L1271,1797 L1274,1795 L1274,1788 L1266,1773 L1264,1761 L1260,1755 L1260,1752 L1257,1747 L1246,1736 L1251,1728 L1252,1714 L1248,1701 L1238,1684 L1235,1681 Z M 1209,1703 L1211,1703 L1212,1704 L1214,1704 L1216,1706 L1217,1706 L1219,1708 L1219,1709 L1220,1710 L1220,1711 L1221,1712 L1221,1714 L1222,1715 L1222,1718 L1223,1719 L1223,1721 L1224,1722 L1224,1724 L1223,1725 L1223,1726 L1222,1727 L1222,1728 L1223,1729 L1223,1730 L1222,1731 L1220,1731 L1219,1732 L1218,1732 L1217,1733 L1216,1733 L1214,1735 L1210,1735 L1206,1731 L1206,1730 L1205,1729 L1205,1727 L1204,1726 L1204,1722 L1203,1721 L1203,1719 L1202,1718 L1202,1716 L1201,1715 L1201,1714 L1200,1713 L1200,1709 L1204,1705 L1205,1705 L1206,1704 L1208,1704 Z M 756,1651 L748,1651 L743,1662 L741,1664 L741,1671 L745,1675 L756,1679 L760,1683 L761,1686 L758,1691 L758,1695 L754,1701 L754,1704 L742,1740 L736,1750 L729,1771 L727,1774 L728,1777 L733,1781 L752,1787 L758,1782 L760,1778 L760,1775 L763,1769 L764,1763 L766,1760 L774,1734 L778,1727 L780,1718 L783,1714 L784,1706 L787,1703 L787,1700 L794,1694 L801,1695 L808,1699 L814,1698 L820,1686 L820,1682 L821,1681 L821,1677 L815,1673 L802,1670 L797,1667 L779,1661 Z M 1304,1645 L1297,1648 L1292,1652 L1286,1653 L1279,1656 L1277,1658 L1276,1664 L1282,1688 L1283,1697 L1287,1709 L1291,1734 L1296,1750 L1297,1760 L1301,1775 L1301,1781 L1305,1784 L1309,1784 L1316,1780 L1321,1779 L1327,1775 L1328,1773 L1327,1760 L1335,1752 L1343,1750 L1354,1762 L1360,1762 L1367,1757 L1369,1758 L1376,1755 L1380,1750 L1377,1743 L1366,1729 L1364,1724 L1362,1723 L1361,1719 L1355,1714 L1325,1667 L1320,1663 L1314,1651 L1309,1646 Z M 1311,1693 L1314,1693 L1315,1694 L1315,1696 L1316,1697 L1316,1698 L1318,1700 L1318,1701 L1320,1703 L1321,1703 L1322,1704 L1321,1705 L1322,1706 L1322,1707 L1323,1708 L1323,1709 L1324,1710 L1324,1711 L1326,1713 L1326,1715 L1328,1717 L1328,1718 L1329,1719 L1329,1720 L1330,1721 L1330,1722 L1331,1723 L1331,1724 L1333,1726 L1333,1727 L1332,1728 L1332,1729 L1330,1731 L1329,1731 L1328,1732 L1326,1732 L1325,1733 L1324,1733 L1323,1734 L1322,1734 L1321,1735 L1320,1735 L1319,1734 L1319,1732 L1318,1731 L1318,1730 L1317,1729 L1317,1728 L1315,1726 L1315,1723 L1314,1722 L1312,1722 L1311,1721 L1311,1720 L1312,1719 L1312,1718 L1313,1717 L1313,1716 L1312,1715 L1312,1712 L1311,1711 L1311,1710 L1310,1709 L1310,1707 L1309,1706 L1309,1699 L1308,1698 L1308,1697 L1309,1696 L1309,1695 Z M 693,1621 L688,1621 L687,1620 L680,1620 L666,1627 L659,1633 L641,1662 L641,1664 L625,1696 L625,1700 L624,1701 L624,1717 L627,1725 L637,1736 L645,1740 L647,1742 L657,1746 L660,1746 L661,1747 L673,1746 L682,1741 L694,1729 L696,1726 L696,1723 L699,1721 L701,1716 L703,1714 L703,1712 L705,1710 L709,1701 L712,1697 L712,1695 L721,1677 L722,1672 L726,1664 L726,1661 L727,1660 L726,1652 L727,1649 L722,1639 L714,1631 L708,1627 Z M 691,1648 L692,1649 L693,1649 L696,1652 L696,1653 L697,1654 L697,1661 L696,1662 L696,1663 L693,1666 L693,1667 L692,1668 L692,1672 L688,1676 L688,1677 L687,1678 L687,1680 L686,1681 L685,1681 L685,1683 L686,1684 L685,1685 L684,1685 L681,1688 L681,1690 L679,1692 L679,1694 L678,1695 L678,1697 L675,1700 L675,1702 L674,1703 L674,1704 L673,1705 L673,1706 L672,1707 L672,1708 L671,1709 L670,1712 L665,1717 L662,1718 L661,1719 L661,1720 L660,1721 L659,1721 L654,1716 L654,1713 L653,1712 L653,1711 L654,1710 L654,1704 L658,1699 L658,1697 L660,1695 L660,1692 L663,1689 L663,1686 L664,1685 L665,1685 L666,1682 L668,1680 L668,1679 L669,1678 L669,1676 L670,1675 L670,1673 L672,1671 L673,1668 L675,1666 L675,1665 L676,1664 L676,1662 L677,1661 L678,1661 L678,1660 L679,1659 L679,1656 L686,1649 L687,1649 L688,1648 Z M 1380,1606 L1363,1615 L1352,1628 L1349,1638 L1352,1655 L1358,1665 L1359,1671 L1378,1702 L1394,1722 L1402,1728 L1408,1730 L1420,1730 L1426,1728 L1440,1719 L1442,1713 L1446,1709 L1464,1704 L1465,1695 L1450,1674 L1436,1647 L1430,1643 L1422,1649 L1404,1658 L1402,1662 L1402,1665 L1409,1676 L1412,1676 L1413,1678 L1421,1681 L1428,1681 L1424,1683 L1427,1691 L1425,1697 L1428,1697 L1429,1700 L1420,1702 L1409,1699 L1407,1697 L1408,1694 L1399,1677 L1397,1676 L1397,1673 L1390,1666 L1389,1660 L1379,1645 L1379,1634 L1384,1632 L1394,1634 L1395,1638 L1398,1641 L1401,1641 L1419,1631 L1422,1625 L1419,1619 L1404,1606 L1396,1604 Z M 574,1543 L550,1579 L543,1585 L535,1598 L508,1630 L502,1640 L502,1645 L518,1657 L523,1657 L528,1647 L533,1644 L546,1624 L545,1622 L547,1620 L549,1622 L553,1618 L550,1614 L553,1611 L558,1617 L558,1623 L555,1628 L557,1631 L552,1635 L537,1669 L541,1675 L549,1675 L561,1666 L575,1650 L581,1647 L582,1643 L591,1642 L593,1644 L592,1651 L588,1652 L590,1656 L583,1658 L562,1687 L573,1699 L583,1702 L630,1642 L630,1637 L655,1608 L656,1603 L649,1594 L637,1585 L628,1583 L620,1588 L613,1598 L609,1598 L607,1604 L603,1602 L594,1612 L589,1612 L585,1615 L581,1607 L584,1608 L594,1587 L594,1580 L596,1580 L602,1567 L602,1560 L582,1544 Z M 1469,1542 L1463,1545 L1450,1557 L1420,1579 L1418,1587 L1454,1630 L1484,1672 L1490,1678 L1490,1680 L1499,1681 L1508,1672 L1548,1643 L1549,1638 L1546,1632 L1537,1622 L1532,1622 L1511,1641 L1507,1643 L1499,1642 L1498,1637 L1493,1636 L1494,1632 L1491,1629 L1491,1627 L1489,1626 L1486,1628 L1485,1626 L1489,1624 L1510,1605 L1510,1599 L1499,1586 L1493,1586 L1474,1601 L1470,1600 L1466,1604 L1463,1603 L1466,1597 L1460,1590 L1460,1582 L1482,1566 L1485,1560 L1479,1548 L1475,1544 Z M 1699,1476 L1692,1481 L1655,1515 L1653,1514 L1643,1479 L1641,1478 L1593,1528 L1556,1562 L1630,1525 L1631,1526 L1631,1533 L1630,1534 L1630,1547 L1629,1548 L1629,1563 L1628,1564 L1629,1565 L1661,1528 Z M 368,1454 L390,1502 L408,1535 L420,1554 L423,1536 L424,1519 L425,1516 L427,1515 L492,1565 L461,1523 L424,1466 L422,1467 L417,1478 L404,1500 Z M 1400,1387 L1389,1379 L1346,1419 L1296,1455 L1204,1501 L1124,1524 L1023,1534 L924,1524 L852,1504 L763,1462 L682,1401 L670,1408 L740,1463 L836,1512 L932,1539 L1036,1547 L1137,1535 L1230,1505 L1315,1459 L1366,1420 Z M 1372,1364 L1354,1347 L1287,1404 L1206,1449 L1122,1476 L1045,1486 L960,1482 L895,1468 L803,1430 L722,1373 L701,1389 L776,1444 L870,1487 L956,1507 L1053,1511 L1143,1497 L1226,1468 L1303,1424 Z M 556,1254 L555,1255 L556,1256 L556,1257 L557,1258 L557,1259 L558,1260 L558,1261 L559,1262 L559,1263 L560,1264 L560,1265 L561,1266 L561,1267 L562,1268 L565,1275 L567,1277 L569,1282 L571,1284 L573,1289 L577,1294 L579,1299 L581,1301 L581,1302 L583,1304 L583,1305 L587,1310 L588,1313 L591,1316 L591,1317 L593,1319 L593,1320 L595,1322 L595,1323 L597,1325 L597,1326 L600,1329 L600,1330 L602,1332 L603,1332 L604,1331 L609,1330 L612,1328 L614,1328 L614,1326 L609,1320 L609,1319 L607,1317 L607,1316 L604,1313 L604,1312 L602,1310 L602,1309 L600,1307 L600,1306 L598,1304 L598,1303 L594,1298 L593,1295 L590,1292 L589,1289 L587,1287 L586,1284 L584,1282 L582,1277 L580,1275 L580,1274 L579,1273 L579,1272 L578,1271 L578,1270 L577,1269 L574,1262 L572,1260 L569,1253 L568,1252 L566,1252 L565,1253 L562,1253 L561,1254 Z M 608,1227 L603,1232 L602,1232 L600,1235 L599,1235 L593,1240 L590,1241 L588,1243 L589,1244 L594,1255 L596,1257 L599,1264 L601,1266 L602,1269 L604,1271 L606,1276 L610,1281 L611,1284 L613,1286 L613,1287 L615,1289 L615,1290 L617,1292 L617,1293 L619,1295 L619,1296 L621,1298 L621,1299 L623,1301 L623,1302 L626,1305 L626,1306 L629,1309 L629,1310 L631,1312 L631,1313 L634,1316 L634,1317 L636,1317 L640,1314 L641,1314 L643,1312 L644,1312 L646,1310 L647,1310 L649,1308 L650,1308 L652,1306 L653,1306 L656,1303 L651,1297 L651,1296 L649,1294 L649,1293 L646,1290 L646,1289 L644,1287 L644,1286 L641,1283 L640,1280 L637,1277 L636,1274 L632,1269 L631,1266 L628,1263 L626,1258 L624,1256 L622,1251 L620,1249 L616,1240 L614,1238 L609,1227 Z M 1476,1206 L1474,1206 L1473,1207 L1459,1207 L1458,1208 L1448,1208 L1447,1209 L1447,1211 L1440,1224 L1440,1226 L1439,1227 L1436,1234 L1434,1236 L1434,1238 L1432,1240 L1432,1241 L1431,1242 L1429,1247 L1427,1249 L1424,1256 L1422,1258 L1422,1259 L1420,1261 L1419,1264 L1415,1269 L1415,1271 L1416,1272 L1416,1273 L1421,1278 L1421,1279 L1432,1290 L1435,1287 L1436,1284 L1440,1279 L1442,1274 L1444,1272 L1444,1271 L1446,1269 L1448,1264 L1450,1262 L1455,1251 L1457,1249 L1457,1248 L1460,1243 L1460,1241 L1462,1239 L1462,1238 L1465,1233 L1465,1231 L1470,1222 L1470,1220 L1474,1213 L1474,1211 L1476,1208 Z M 1504,1204 L1501,1204 L1499,1208 L1499,1210 L1496,1215 L1495,1220 L1487,1236 L1487,1238 L1475,1262 L1473,1264 L1470,1271 L1468,1273 L1461,1287 L1459,1289 L1459,1290 L1457,1292 L1457,1293 L1455,1295 L1455,1296 L1453,1298 L1452,1301 L1449,1305 L1456,1310 L1457,1310 L1459,1312 L1461,1312 L1461,1311 L1464,1308 L1465,1305 L1467,1303 L1470,1297 L1472,1295 L1474,1290 L1477,1287 L1480,1280 L1482,1278 L1485,1271 L1487,1269 L1488,1265 L1490,1263 L1497,1249 L1497,1247 L1503,1236 L1503,1234 L1507,1227 L1507,1225 L1511,1217 L1511,1213 Z M 917,1159 L913,1159 L913,1162 L912,1163 L912,1164 L911,1165 L911,1166 L910,1167 L910,1168 L909,1169 L909,1171 L908,1172 L908,1174 L907,1175 L907,1179 L908,1179 L909,1180 L916,1180 L916,1179 L917,1178 L917,1176 L918,1175 L918,1174 L919,1173 L919,1171 L920,1170 L920,1168 L921,1167 L921,1162 L920,1162 Z M 905,1153 L904,1153 L903,1154 L902,1154 L898,1158 L898,1159 L895,1162 L895,1164 L894,1165 L894,1166 L893,1167 L893,1170 L894,1171 L894,1173 L896,1175 L898,1175 L899,1174 L900,1174 L903,1171 L904,1171 L905,1170 L905,1169 L906,1168 L906,1167 L907,1166 L907,1165 L908,1164 L908,1162 L909,1161 L909,1159 L908,1158 L908,1156 L907,1155 L907,1154 L906,1154 Z M 1479,1112 L1478,1112 L1478,1113 L1477,1114 L1477,1119 L1476,1120 L1476,1124 L1475,1125 L1475,1128 L1474,1129 L1474,1131 L1473,1132 L1473,1136 L1472,1137 L1472,1140 L1471,1141 L1471,1144 L1470,1145 L1470,1147 L1469,1148 L1469,1150 L1468,1151 L1468,1154 L1467,1155 L1467,1158 L1466,1159 L1466,1160 L1473,1160 L1474,1159 L1483,1159 L1484,1158 L1493,1158 L1493,1157 L1494,1156 L1494,1153 L1495,1152 L1495,1150 L1496,1149 L1496,1146 L1497,1145 L1497,1141 L1498,1140 L1498,1134 L1493,1129 L1493,1128 L1487,1122 L1487,1121 L1482,1116 L1482,1115 Z M 1508,977 L1505,979 L1503,979 L1502,980 L1499,980 L1496,982 L1494,982 L1489,985 L1487,985 L1486,986 L1485,986 L1485,991 L1486,992 L1486,1014 L1487,1015 L1487,1031 L1486,1032 L1486,1051 L1490,1055 L1490,1056 L1497,1063 L1497,1064 L1507,1074 L1507,1075 L1508,1076 L1509,1076 L1509,1073 L1510,1072 L1510,1062 L1511,1061 L1511,1042 L1512,1041 L1512,1040 L1511,1039 L1511,1038 L1512,1037 L1512,1009 L1511,1008 L1512,1007 L1511,1006 L1511,987 L1510,986 L1510,978 L1509,977 Z M 516,973 L513,973 L512,974 L508,974 L507,975 L503,975 L503,983 L502,984 L502,1001 L501,1002 L501,1044 L502,1045 L502,1061 L503,1062 L503,1065 L504,1064 L506,1064 L509,1062 L512,1062 L513,1061 L515,1061 L515,1048 L514,1047 L514,998 L515,997 L515,984 L516,983 L516,975 L517,974 Z M 1545,971 L1542,971 L1541,972 L1532,972 L1532,983 L1533,984 L1533,1000 L1534,1001 L1534,1046 L1533,1047 L1534,1048 L1533,1049 L1533,1063 L1532,1064 L1531,1081 L1530,1082 L1530,1089 L1529,1090 L1529,1098 L1532,1101 L1536,1100 L1537,1099 L1539,1099 L1540,1098 L1542,1098 L1543,1097 L1543,1091 L1544,1090 L1544,1082 L1545,1081 L1545,1071 L1546,1070 L1546,1060 L1547,1059 L1547,1044 L1548,1043 L1548,1003 L1547,1002 L1547,987 L1546,986 L1546,976 L1545,975 Z M 539,971 L539,974 L538,975 L538,983 L537,984 L537,998 L536,999 L536,1045 L537,1046 L537,1057 L538,1058 L549,1058 L550,1059 L556,1059 L557,1060 L560,1060 L561,1061 L563,1061 L563,1056 L562,1055 L562,1038 L561,1037 L561,1008 L562,1007 L562,991 L563,990 L563,981 L564,980 L564,973 L562,973 L561,972 L551,972 L550,971 Z M 741,859 L741,871 L749,884 L780,910 L1269,911 L1261,909 L1231,887 L1118,843 L758,843 L749,847 Z M 661,743 L659,745 L659,746 L658,747 L658,748 L657,749 L657,750 L656,751 L656,753 L655,754 L655,758 L654,759 L654,784 L655,785 L655,788 L656,789 L656,791 L657,792 L657,793 L658,794 L658,795 L659,796 L659,797 L663,801 L664,801 L664,800 L665,799 L665,788 L666,787 L666,765 L665,764 L665,744 L664,743 Z M 670,743 L670,745 L669,746 L669,802 L690,802 L691,801 L698,801 L699,800 L703,800 L704,799 L706,799 L707,798 L710,798 L711,797 L713,797 L714,796 L715,796 L716,795 L723,792 L730,785 L730,784 L734,777 L734,766 L733,765 L732,762 L725,755 L724,755 L722,753 L720,753 L718,751 L717,751 L712,748 L710,748 L707,746 L705,746 L704,745 L702,745 L701,744 L698,744 L697,743 L692,743 L691,742 L685,742 L684,741 L672,741 Z M 879,730 L879,732 L878,733 L878,744 L879,745 L879,748 L880,749 L880,750 L887,750 L888,749 L900,749 L900,748 L901,747 L901,746 L902,745 L902,734 L901,733 L901,731 L900,730 L900,729 L880,729 Z M 863,729 L861,731 L861,732 L860,733 L860,735 L859,736 L859,746 L860,747 L860,748 L862,750 L867,750 L868,749 L872,749 L873,748 L873,741 L872,740 L872,730 L871,730 L870,729 Z M 276,1127 L286,1232 L337,1328 L416,1392 L528,1424 L613,1416 L686,1384 L751,1326 L796,1247 L807,1102 L768,1010 L697,934 L719,884 L771,941 L895,1265 L944,1326 L1001,1360 L1082,1351 L1165,1263 L1223,1247 L1252,1214 L1296,1210 L1346,1316 L1422,1387 L1518,1421 L1627,1417 L1706,1383 L1766,1329 L1809,1259 L1828,1173 L1822,1098 L1789,1014 L1680,916 L1539,888 L1384,950 L1446,906 L1545,879 L1559,854 L1454,873 L1358,929 L1344,912 L1420,878 L1448,816 L1404,849 L1274,824 L1216,833 L1279,880 L1120,817 L748,817 L777,753 L851,748 L853,732 L763,735 L636,904 L505,890 L387,938 L309,1025 Z M 1146,1268 L1145,1269 L1136,1269 L1134,1270 L1118,1291 L1097,1312 L1087,1320 L1066,1333 L1052,1339 L1049,1339 L1040,1342 L1021,1341 L1020,1340 L1015,1340 L1014,1339 L1010,1339 L1006,1337 L1003,1337 L992,1333 L987,1330 L989,1328 L995,1328 L996,1327 L1060,1327 L1061,1326 L1066,1326 L1068,1322 L1068,1319 L1074,1309 L1089,1293 L1093,1287 L1096,1280 L1096,1275 L1097,1274 L1111,1272 L1112,1271 L1117,1271 L1118,1270 L1124,1270 L1135,1267 L1145,1267 Z M 1182,1245 L1180,1247 L1179,1247 L1176,1249 L1174,1249 L1173,1250 L1170,1250 L1169,1251 L1166,1251 L1165,1252 L1162,1252 L1161,1253 L1157,1253 L1156,1254 L1150,1254 L1149,1255 L1141,1255 L1140,1256 L1133,1256 L1132,1257 L1127,1257 L1126,1258 L1121,1258 L1120,1259 L1115,1259 L1114,1260 L1110,1260 L1109,1261 L1106,1261 L1105,1262 L1103,1262 L1102,1263 L1100,1263 L1099,1264 L1089,1264 L1088,1263 L1090,1261 L1099,1261 L1100,1260 L1102,1260 L1104,1258 L1104,1254 L1105,1253 L1104,1252 L1104,1249 L1103,1248 L1101,1248 L1098,1245 L1098,1244 L1099,1243 L1100,1243 L1101,1244 L1104,1244 L1105,1245 L1110,1245 L1111,1246 L1150,1246 L1151,1247 L1156,1247 L1159,1244 L1159,1243 L1162,1240 L1163,1240 L1166,1242 L1172,1242 L1173,1243 L1178,1243 L1179,1244 L1181,1244 Z M 1020,1216 L1024,1216 L1026,1218 L1027,1218 L1032,1223 L1032,1225 L1033,1226 L1032,1227 L1028,1227 L1027,1228 L1022,1229 L1018,1231 L1014,1235 L1012,1239 L1012,1241 L1011,1242 L1011,1250 L1013,1253 L1013,1255 L1015,1257 L1028,1264 L1030,1264 L1036,1261 L1040,1257 L1041,1257 L1045,1253 L1046,1253 L1047,1254 L1047,1264 L1046,1265 L1040,1265 L1039,1264 L1036,1264 L1033,1266 L1033,1268 L1036,1271 L1036,1273 L1035,1274 L1022,1275 L1021,1274 L1021,1272 L1024,1269 L1024,1266 L1022,1268 L1010,1268 L1005,1263 L1004,1261 L1006,1257 L1008,1255 L1008,1253 L1009,1252 L1008,1250 L1005,1248 L1003,1248 L1002,1249 L1000,1248 L1000,1243 L999,1242 L1000,1241 L1007,1241 L1008,1240 L1005,1234 L1005,1229 L1006,1227 L1011,1222 L1019,1223 L1020,1224 L1022,1224 L1024,1226 L1024,1221 L1019,1217 Z M 1209,1205 L1209,1206 L1207,1208 L1207,1209 L1203,1213 L1202,1213 L1200,1215 L1199,1215 L1198,1216 L1197,1216 L1196,1217 L1194,1217 L1193,1218 L1184,1218 L1183,1217 L1183,1214 L1185,1212 L1185,1211 L1190,1206 L1191,1206 L1192,1205 L1193,1205 L1194,1204 L1199,1204 L1200,1203 L1205,1203 L1206,1204 L1208,1204 Z M 1226,1193 L1226,1205 L1225,1206 L1225,1208 L1223,1210 L1223,1211 L1220,1214 L1220,1215 L1218,1217 L1217,1217 L1213,1221 L1212,1221 L1210,1223 L1209,1223 L1206,1226 L1205,1226 L1203,1228 L1202,1228 L1199,1231 L1176,1231 L1175,1230 L1174,1230 L1172,1228 L1173,1227 L1174,1227 L1175,1228 L1176,1227 L1191,1227 L1192,1226 L1196,1226 L1199,1224 L1201,1224 L1202,1223 L1203,1223 L1204,1222 L1205,1222 L1206,1221 L1207,1221 L1210,1218 L1211,1218 L1217,1212 L1217,1211 L1219,1209 L1219,1208 L1220,1207 L1220,1206 L1222,1203 L1222,1201 L1223,1200 L1223,1196 L1224,1195 L1224,1193 L1225,1192 Z M 1203,1176 L1204,1177 L1202,1179 L1202,1180 L1195,1187 L1194,1187 L1192,1189 L1191,1189 L1190,1190 L1189,1189 L1189,1184 L1190,1183 L1190,1182 L1196,1176 L1199,1176 L1200,1175 L1201,1175 L1202,1176 Z M 1007,1171 L1009,1169 L1011,1169 L1012,1168 L1016,1168 L1017,1167 L1036,1167 L1037,1168 L1043,1168 L1044,1169 L1045,1169 L1046,1170 L1042,1174 L1017,1174 L1016,1173 L1010,1173 L1009,1172 L1008,1172 Z M 1201,1161 L1206,1166 L1206,1167 L1207,1168 L1206,1169 L1195,1169 L1194,1170 L1192,1170 L1190,1172 L1189,1172 L1185,1176 L1185,1177 L1183,1180 L1183,1182 L1182,1183 L1182,1190 L1183,1191 L1183,1194 L1184,1195 L1184,1196 L1183,1197 L1183,1198 L1179,1202 L1179,1203 L1170,1212 L1167,1213 L1164,1210 L1164,1209 L1161,1206 L1161,1205 L1160,1204 L1160,1203 L1159,1202 L1159,1201 L1157,1198 L1157,1196 L1156,1195 L1156,1191 L1155,1190 L1155,1179 L1156,1178 L1156,1175 L1157,1174 L1158,1171 L1164,1165 L1165,1165 L1166,1164 L1167,1164 L1168,1163 L1169,1163 L1172,1161 L1175,1161 L1176,1160 L1178,1160 L1179,1159 L1183,1159 L1184,1158 L1195,1158 L1196,1159 L1197,1159 L1198,1160 Z M 1196,1147 L1198,1147 L1199,1148 L1203,1148 L1204,1149 L1205,1149 L1206,1150 L1207,1150 L1208,1151 L1209,1151 L1210,1152 L1211,1152 L1212,1153 L1213,1153 L1221,1161 L1221,1162 L1222,1163 L1222,1164 L1223,1165 L1223,1166 L1224,1167 L1224,1168 L1225,1169 L1225,1171 L1226,1172 L1226,1176 L1227,1177 L1227,1182 L1226,1183 L1225,1182 L1224,1182 L1223,1181 L1223,1180 L1222,1179 L1222,1172 L1221,1171 L1221,1170 L1220,1169 L1220,1167 L1219,1166 L1219,1165 L1218,1164 L1218,1163 L1217,1163 L1215,1161 L1214,1161 L1212,1159 L1211,1159 L1209,1157 L1208,1157 L1206,1155 L1205,1155 L1203,1153 L1202,1153 L1200,1151 L1199,1151 L1198,1150 L1197,1150 L1195,1148 Z M 1176,1147 L1177,1148 L1175,1150 L1173,1150 L1172,1151 L1170,1151 L1169,1152 L1168,1152 L1166,1154 L1165,1154 L1163,1156 L1162,1156 L1155,1163 L1155,1164 L1152,1167 L1152,1168 L1151,1169 L1151,1171 L1150,1172 L1150,1173 L1149,1174 L1149,1176 L1148,1177 L1148,1180 L1147,1181 L1147,1186 L1146,1187 L1146,1189 L1147,1190 L1147,1201 L1148,1202 L1148,1205 L1149,1206 L1149,1207 L1159,1218 L1158,1219 L1157,1219 L1154,1216 L1153,1216 L1151,1214 L1151,1213 L1148,1210 L1148,1209 L1145,1204 L1145,1202 L1144,1201 L1144,1199 L1143,1198 L1143,1193 L1142,1192 L1142,1186 L1143,1185 L1143,1179 L1144,1178 L1144,1175 L1145,1174 L1145,1172 L1146,1171 L1146,1169 L1147,1168 L1147,1167 L1148,1166 L1149,1163 L1151,1161 L1151,1160 L1160,1151 L1163,1150 L1165,1148 L1168,1148 L1169,1147 Z M 898,1148 L900,1148 L901,1147 L904,1147 L905,1146 L914,1146 L915,1147 L917,1147 L918,1148 L919,1148 L925,1154 L925,1155 L926,1156 L926,1157 L927,1158 L927,1159 L928,1160 L928,1173 L927,1174 L927,1176 L926,1177 L926,1178 L923,1181 L923,1182 L919,1186 L918,1186 L917,1187 L916,1187 L915,1188 L911,1188 L910,1189 L909,1188 L902,1188 L901,1187 L900,1187 L899,1186 L898,1186 L893,1181 L893,1180 L891,1178 L891,1177 L890,1176 L890,1175 L889,1174 L889,1172 L888,1171 L888,1166 L887,1165 L887,1164 L888,1163 L888,1159 L889,1158 L889,1157 L890,1156 L890,1155 L896,1149 L897,1149 Z M 1524,1145 L1526,1147 L1526,1157 L1525,1158 L1525,1164 L1524,1165 L1524,1167 L1523,1168 L1520,1168 L1519,1167 L1519,1163 L1520,1162 L1520,1152 L1521,1151 L1521,1147 L1523,1145 Z M 1558,1141 L1560,1141 L1561,1140 L1573,1140 L1574,1141 L1575,1141 L1578,1143 L1580,1143 L1587,1150 L1587,1151 L1590,1154 L1590,1156 L1591,1157 L1591,1158 L1592,1159 L1592,1161 L1593,1162 L1593,1174 L1592,1175 L1592,1177 L1591,1178 L1591,1179 L1590,1180 L1589,1183 L1585,1187 L1584,1187 L1583,1188 L1582,1188 L1579,1190 L1576,1190 L1574,1188 L1574,1185 L1573,1184 L1573,1182 L1572,1181 L1572,1179 L1571,1178 L1571,1175 L1572,1174 L1573,1174 L1574,1175 L1575,1175 L1577,1177 L1580,1178 L1581,1177 L1582,1177 L1587,1172 L1587,1168 L1586,1167 L1586,1165 L1585,1164 L1585,1163 L1579,1157 L1578,1157 L1577,1156 L1576,1156 L1573,1154 L1571,1154 L1570,1153 L1569,1153 L1566,1151 L1564,1151 L1563,1150 L1562,1150 L1559,1147 L1558,1147 L1555,1144 L1555,1143 Z M 1151,1140 L1152,1141 L1142,1151 L1142,1152 L1137,1158 L1134,1164 L1134,1166 L1132,1169 L1132,1171 L1130,1175 L1130,1178 L1129,1179 L1129,1183 L1128,1184 L1128,1198 L1129,1199 L1129,1202 L1130,1203 L1132,1211 L1136,1218 L1145,1226 L1146,1230 L1145,1231 L1107,1231 L1106,1230 L1103,1230 L1102,1229 L1102,1221 L1101,1220 L1101,1215 L1100,1214 L1100,1211 L1095,1201 L1088,1193 L1087,1193 L1082,1188 L1079,1187 L1076,1184 L1079,1181 L1082,1180 L1087,1176 L1092,1174 L1094,1172 L1108,1165 L1110,1163 L1124,1156 L1126,1154 L1131,1152 L1133,1150 L1138,1148 L1140,1146 L1143,1145 L1145,1143 Z M 1554,1131 L1556,1131 L1557,1130 L1565,1130 L1566,1129 L1579,1129 L1593,1139 L1604,1153 L1604,1180 L1599,1187 L1586,1200 L1581,1203 L1561,1203 L1560,1202 L1555,1202 L1546,1198 L1542,1195 L1538,1189 L1539,1187 L1543,1189 L1553,1198 L1572,1198 L1586,1193 L1593,1188 L1599,1181 L1599,1178 L1600,1177 L1600,1162 L1599,1161 L1599,1158 L1597,1155 L1597,1153 L1594,1148 L1586,1140 L1574,1135 L1560,1135 L1559,1136 L1556,1136 L1551,1138 L1550,1137 L1550,1135 Z M 920,1118 L926,1126 L932,1125 L939,1120 L945,1121 L973,1181 L958,1202 L948,1221 L945,1233 L945,1254 L948,1267 L958,1287 L965,1296 L979,1308 L983,1323 L982,1325 L961,1310 L947,1296 L928,1272 L902,1230 L881,1187 L869,1156 L870,1153 L880,1171 L888,1191 L897,1204 L919,1197 L945,1184 L943,1174 L920,1125 Z M 1558,1117 L1566,1116 L1584,1119 L1595,1124 L1608,1135 L1616,1150 L1617,1175 L1611,1192 L1608,1197 L1598,1207 L1589,1213 L1580,1216 L1571,1216 L1570,1217 L1559,1216 L1546,1212 L1537,1207 L1530,1201 L1526,1191 L1527,1188 L1539,1201 L1550,1208 L1561,1211 L1573,1211 L1585,1208 L1592,1203 L1611,1180 L1611,1164 L1608,1151 L1600,1137 L1591,1129 L1582,1124 L1577,1123 L1565,1123 L1544,1128 L1540,1127 L1550,1120 Z M 593,1102 L594,1103 L595,1103 L598,1106 L598,1108 L599,1109 L599,1112 L598,1113 L598,1116 L597,1117 L597,1120 L596,1121 L596,1123 L595,1124 L595,1126 L594,1127 L594,1128 L593,1129 L593,1131 L592,1132 L592,1134 L591,1135 L590,1134 L588,1134 L587,1133 L586,1133 L582,1129 L582,1126 L581,1125 L581,1124 L582,1123 L582,1120 L583,1119 L583,1117 L584,1116 L584,1114 L585,1113 L585,1111 L586,1110 L586,1109 L587,1108 L587,1107 L588,1106 L588,1104 L590,1102 Z M 533,1079 L558,1082 L569,1086 L570,1089 L562,1109 L544,1104 L528,1105 L508,1114 L492,1131 L486,1149 L486,1163 L494,1185 L505,1196 L517,1203 L538,1208 L552,1207 L564,1203 L577,1194 L583,1187 L589,1175 L591,1161 L599,1156 L612,1140 L616,1145 L616,1163 L613,1182 L601,1203 L580,1222 L560,1231 L543,1234 L514,1231 L490,1217 L472,1196 L465,1181 L461,1160 L465,1130 L472,1114 L478,1106 L490,1095 L505,1086 L515,1082 Z M 1413,1025 L1419,1029 L1471,1084 L1515,1135 L1506,1158 L1506,1168 L1504,1170 L1493,1170 L1471,1173 L1447,1174 L1375,1181 L1365,1180 L1364,1177 L1365,1176 L1364,1175 L1364,1138 L1366,1122 L1371,1101 L1379,1079 L1390,1057 L1400,1041 Z M 1399,1005 L1400,1006 L1400,1012 L1398,1016 L1383,1032 L1372,1053 L1366,1060 L1363,1072 L1355,1088 L1350,1102 L1348,1120 L1347,1121 L1347,1131 L1346,1132 L1344,1183 L1342,1184 L1339,1180 L1336,1168 L1336,1142 L1337,1141 L1337,1130 L1338,1129 L1339,1117 L1340,1116 L1341,1106 L1344,1098 L1346,1087 L1356,1062 L1370,1036 L1394,1005 Z M 634,981 L635,982 L639,983 L641,985 L645,987 L649,992 L649,993 L645,1001 L644,1006 L641,1011 L641,1013 L639,1016 L639,1018 L632,1032 L632,1034 L630,1037 L630,1039 L627,1044 L627,1046 L625,1049 L625,1051 L622,1056 L622,1058 L620,1061 L620,1063 L617,1068 L617,1070 L613,1078 L611,1086 L608,1091 L608,1093 L606,1097 L604,1098 L600,1095 L599,1095 L594,1089 L595,1088 L596,1083 L598,1080 L598,1078 L599,1077 L601,1069 L603,1066 L603,1063 L607,1055 L609,1047 L611,1044 L613,1036 L615,1033 L615,1031 L617,1028 L619,1020 L621,1017 L621,1015 L622,1014 L624,1006 L626,1003 L627,997 L629,994 L629,992 L630,991 L632,983 Z M 1261,976 L1266,982 L1262,991 L1260,999 L1258,1002 L1257,1007 L1255,1010 L1254,1016 L1251,1021 L1250,1027 L1246,1035 L1238,1060 L1236,1063 L1235,1069 L1231,1077 L1231,1080 L1229,1083 L1225,1097 L1223,1100 L1222,1106 L1219,1112 L1216,1123 L1215,1124 L1203,1120 L1198,1120 L1191,1118 L1184,1118 L1183,1117 L1184,1116 L1191,1114 L1196,1104 L1196,1102 L1198,1100 L1198,1098 L1208,1075 L1210,1067 L1212,1064 L1214,1055 L1216,1052 L1218,1043 L1223,1031 L1223,1028 L1225,1025 L1228,1014 L1232,1006 L1232,1003 L1246,972 L1251,972 Z M 1365,968 L1366,969 L1363,975 L1337,1009 L1327,1025 L1312,1055 L1303,1079 L1297,1101 L1294,1121 L1295,1171 L1294,1172 L1294,1186 L1292,1188 L1290,1184 L1288,1168 L1289,1128 L1294,1093 L1303,1060 L1318,1026 L1331,1005 L1346,986 Z M 1541,958 L1610,963 L1647,977 L1683,1000 L1714,1030 L1732,1057 L1747,1093 L1756,1135 L1757,1168 L1751,1213 L1714,1279 L1687,1307 L1655,1329 L1621,1344 L1580,1353 L1513,1349 L1482,1339 L1449,1321 L1413,1289 L1395,1266 L1370,1206 L1511,1190 L1519,1204 L1542,1223 L1570,1228 L1600,1219 L1618,1203 L1629,1178 L1628,1155 L1618,1132 L1602,1117 L1581,1106 L1550,1108 L1530,1117 L1431,1010 L1452,991 L1485,972 Z M 520,959 L567,960 L613,973 L574,1077 L541,1070 L507,1076 L484,1090 L461,1117 L452,1143 L452,1168 L461,1197 L481,1221 L507,1236 L547,1243 L579,1234 L607,1211 L626,1171 L627,1151 L619,1123 L668,1006 L696,1031 L717,1061 L733,1097 L741,1133 L742,1169 L734,1213 L700,1277 L670,1308 L639,1330 L605,1345 L569,1353 L530,1354 L495,1348 L429,1316 L395,1285 L373,1256 L358,1226 L346,1175 L345,1142 L352,1102 L369,1062 L395,1025 L447,982 L482,967 Z M 643,957 L644,956 L645,956 L646,957 L647,957 L649,959 L650,959 L651,960 L652,960 L654,962 L655,962 L656,963 L657,963 L658,964 L658,965 L659,966 L659,968 L658,969 L658,970 L657,971 L653,971 L651,969 L650,969 L648,967 L647,967 L645,965 L644,965 L641,962 L641,960 L643,958 Z M 795,945 L1266,947 L1257,956 L1244,952 L1236,962 L1212,957 L1154,1115 L1159,1122 L1089,1162 L1105,1122 L1129,1122 L1138,1105 L1131,1098 L1141,1098 L1171,1033 L1154,1022 L1168,984 L1135,1021 L1154,981 L1144,972 L1125,1007 L1109,1011 L1133,971 L1122,966 L1103,1000 L1094,994 L1090,1002 L1091,992 L1080,997 L1067,1025 L1071,1032 L1052,1054 L1059,1060 L1040,1081 L1057,1095 L1035,1139 L1031,1077 L1045,1048 L1037,1029 L1043,1006 L1032,996 L1008,1005 L1007,1053 L1019,1074 L1017,1140 L994,1095 L1010,1083 L992,1060 L997,1054 L967,990 L961,999 L947,998 L929,966 L918,967 L938,1009 L925,1004 L910,972 L896,979 L912,1018 L885,982 L881,991 L896,1021 L877,1035 L909,1099 L920,1098 L912,1104 L920,1112 L884,1100 L869,1108 L860,1129 Z M 1560,932 L1628,941 L1674,963 L1711,990 L1744,1027 L1768,1069 L1785,1142 L1784,1182 L1773,1230 L1730,1303 L1696,1335 L1657,1359 L1570,1381 L1497,1372 L1433,1341 L1376,1285 L1356,1251 L1344,1212 L1346,1205 L1383,1278 L1419,1318 L1473,1352 L1528,1369 L1588,1370 L1645,1355 L1696,1324 L1736,1282 L1770,1211 L1775,1131 L1752,1055 L1700,991 L1635,952 L1556,939 L1488,952 L1413,992 L1422,979 L1474,950 Z M 529,931 L585,935 L622,950 L532,940 L457,958 L381,1014 L338,1088 L328,1138 L334,1209 L358,1267 L400,1317 L467,1358 L561,1372 L605,1364 L649,1345 L707,1298 L750,1220 L759,1140 L739,1063 L678,981 L712,1008 L738,1045 L761,1096 L767,1137 L766,1180 L753,1235 L710,1307 L640,1359 L550,1381 L465,1367 L397,1326 L348,1267 L328,1221 L319,1172 L330,1083 L372,1010 L442,955 Z M 1296,896 L1342,945 L1325,965 L1304,995 L1289,1022 L1274,1058 L1265,1089 L1259,1122 L1256,1171 L1260,1177 L1261,1187 L1257,1192 L1255,1189 L1255,1174 L1246,1154 L1234,1138 L1220,1125 L1228,1122 L1256,1036 L1296,926 Z M 706,850 L707,851 L707,854 L706,855 L706,857 L704,860 L704,862 L703,863 L703,864 L701,867 L701,869 L700,870 L700,871 L698,874 L698,876 L696,879 L696,881 L695,882 L695,883 L694,884 L694,885 L692,888 L692,890 L690,893 L690,895 L689,896 L689,897 L687,900 L687,902 L686,903 L686,905 L685,906 L685,907 L684,908 L684,909 L682,912 L682,914 L681,915 L681,916 L680,917 L679,920 L677,922 L675,922 L674,921 L672,921 L671,920 L670,920 L669,919 L666,918 L664,916 L661,915 L659,913 L659,910 L660,909 L660,907 L661,906 L661,904 L662,903 L662,902 L664,900 L664,899 L665,898 L666,895 L668,893 L669,890 L674,885 L674,884 L680,878 L680,877 L699,858 L699,857 Z M 729,869 L747,833 L1119,833 L1278,897 L1281,915 L1279,919 L778,920 L760,908 Z M 907,756 L908,755 L918,755 L919,754 L954,754 L955,753 L986,753 L986,752 L992,744 L992,742 L994,739 L994,736 L993,735 L993,734 L989,730 L988,730 L985,728 L982,728 L981,727 L978,727 L977,726 L968,726 L967,725 L953,725 L952,726 L923,726 L922,725 L912,725 L911,724 L908,724 L908,725 L907,726 L907,732 L906,733 L906,749 L907,750 Z M 305,689 L253,747 L184,839 L250,821 L216,959 L259,884 L324,784 L256,778 Z M 1792,685 L1830,778 L1762,778 L1812,879 L1848,963 L1831,823 L1843,826 L1894,849 L1836,748 Z M 559,875 L585,878 L650,736 L666,731 L761,643 L873,586 L931,570 L1002,561 L1070,563 L1139,575 L1254,622 L1310,660 L1363,709 L1434,810 L1445,803 L1460,810 L1464,831 L1456,859 L1480,849 L1450,785 L1403,716 L1353,663 L1288,613 L1226,579 L1151,552 L1076,538 L995,536 L926,545 L853,566 L792,594 L731,633 L674,683 L623,745 L580,820 Z M 522,876 L537,874 L560,811 L611,724 L713,619 L770,581 L841,547 L924,523 L994,514 L1066,515 L1150,529 L1219,552 L1293,590 L1357,637 L1410,690 L1462,762 L1502,846 L1516,842 L1484,772 L1441,706 L1380,639 L1330,598 L1259,555 L1173,521 L1085,503 L1003,500 L925,509 L840,533 L771,565 L703,610 L638,670 L594,725 L552,797 Z M 396,381 L371,394 L352,410 L339,430 L331,436 L315,469 L313,481 L297,488 L282,501 L275,518 L277,549 L279,551 L284,530 L292,521 L301,518 L316,527 L366,575 L372,577 L375,569 L375,583 L389,594 L392,625 L423,623 L465,659 L479,677 L492,683 L516,707 L522,718 L520,726 L507,737 L485,745 L514,745 L545,727 L562,699 L604,676 L628,647 L647,604 L641,550 L616,502 L594,472 L578,460 L572,422 L546,424 L490,390 L466,382 L446,379 Z M 365,454 L370,452 L382,438 L392,431 L400,428 L408,428 L423,435 L461,469 L482,481 L486,520 L496,518 L497,516 L503,517 L505,515 L507,518 L521,520 L548,546 L554,545 L560,556 L583,575 L599,605 L598,620 L588,636 L573,650 L559,641 L535,616 L531,615 L528,610 L521,606 L509,593 L500,589 L497,582 L491,579 L481,568 L476,567 L475,532 L439,535 L437,531 L428,527 L418,516 L402,504 L400,500 L397,501 L393,490 L383,484 L371,474 L369,469 L360,463 Z M 1605,378 L1624,397 L1616,417 L1551,469 L1515,470 L1510,500 L1423,572 L1406,570 L1390,547 L1399,590 L1419,610 L1425,627 L1450,646 L1473,654 L1458,640 L1464,611 L1577,523 L1533,609 L1493,669 L1482,700 L1487,721 L1507,750 L1547,772 L1568,770 L1554,765 L1543,752 L1551,733 L1633,666 L1672,666 L1672,640 L1678,630 L1721,594 L1760,571 L1773,578 L1781,600 L1786,591 L1781,554 L1756,533 L1748,510 L1698,492 L1719,510 L1715,528 L1633,598 L1601,617 L1662,516 L1680,476 L1681,458 L1666,404 L1638,385 Z M 1388,214 L1351,209 L1336,214 L1335,217 L1319,218 L1302,225 L1264,257 L1234,298 L1208,308 L1220,336 L1209,356 L1199,396 L1202,406 L1199,408 L1198,440 L1203,464 L1212,485 L1222,500 L1241,517 L1264,529 L1285,530 L1308,527 L1342,516 L1379,486 L1379,482 L1411,441 L1417,427 L1446,417 L1439,397 L1435,393 L1434,382 L1438,376 L1438,366 L1441,366 L1443,360 L1443,347 L1447,334 L1446,297 L1442,275 L1438,273 L1430,250 L1421,238 L1405,223 Z M 1373,250 L1394,262 L1395,285 L1394,290 L1389,296 L1386,307 L1382,312 L1378,325 L1370,338 L1370,346 L1365,349 L1365,352 L1362,355 L1335,365 L1344,389 L1345,397 L1338,408 L1330,429 L1327,431 L1321,449 L1316,456 L1316,463 L1311,468 L1312,475 L1300,486 L1287,492 L1278,492 L1267,488 L1253,475 L1251,469 L1253,447 L1250,443 L1255,443 L1257,441 L1266,417 L1274,404 L1276,395 L1278,394 L1288,372 L1293,367 L1318,357 L1309,334 L1308,326 L1311,323 L1310,322 L1336,272 L1340,260 L1344,258 L1346,252 L1352,249 L1366,248 Z M 689,204 L665,213 L656,227 L638,225 L623,231 L600,256 L593,278 L606,266 L624,264 L631,269 L635,281 L646,292 L655,322 L663,332 L672,354 L664,389 L692,401 L701,421 L707,426 L716,453 L743,507 L740,519 L729,530 L710,532 L728,538 L749,537 L770,532 L790,517 L806,518 L818,513 L845,487 L851,478 L852,468 L835,481 L812,475 L765,375 L765,363 L774,337 L743,324 L699,232 L709,220 L733,213 L717,204 Z M 911,150 L893,170 L913,165 L929,176 L970,266 L974,282 L961,298 L978,320 L926,435 L911,449 L897,452 L913,465 L931,471 L947,466 L967,470 L991,461 L1003,446 L988,448 L980,442 L1015,367 L1028,384 L1030,401 L1051,440 L1046,454 L1029,447 L1043,466 L1076,475 L1090,468 L1126,471 L1142,463 L1156,447 L1143,450 L1126,441 L1106,406 L1069,320 L1076,306 L1087,300 L1069,276 L1114,184 L1134,164 L1151,171 L1147,163 L1121,141 L1099,146 L1075,139 L1063,144 L1047,161 L1058,161 L1056,173 L1028,232 L1011,206 L1014,203 L1000,175 L1006,161 L1026,169 L996,139 L980,138 L961,149 L946,139 L934,139 Z M 989,49 L806,73 L627,133 L459,229 L321,348 L200,502 L111,680 L63,855 L49,1058 L72,1237 L130,1414 L224,1581 L362,1739 L510,1852 L680,1936 L874,1987 L1059,1998 L1242,1974 L1432,1909 L1604,1807 L1739,1686 L1856,1532 L1946,1342 L1989,1165 L1998,971 L1968,778 L1902,599 L1808,444 L1686,308 L1541,197 L1368,111 L1174,60 Z M 986,85 L1179,97 L1346,141 L1512,221 L1655,328 L1777,462 L1874,623 L1936,797 L1963,986 L1954,1159 L1906,1348 L1827,1511 L1708,1667 L1582,1779 L1423,1874 L1235,1939 L1061,1962 L869,1950 L691,1902 L515,1813 L381,1708 L260,1570 L167,1409 L111,1247 L85,1059 L97,869 L145,691 L234,515 L339,381 L466,268 L625,173 L801,111 Z"/></svg>