<svg xmlns="http://www.w3.org/2000/svg" viewBox="0 0 1181 819" aria-hidden="true"><path fill="#000" fill-rule="evenodd" d="M 370,613 L356,610 L352,614 L327,670 L325,669 L320,633 L311,612 L299,613 L288,620 L291,664 L285,695 L271,728 L246,761 L249,765 L263,768 L278,751 L292,721 L305,670 L309,683 L309,713 L302,745 L305,748 L311,748 L322,731 L342,670 L341,707 L343,723 L348,736 L353,740 L358,740 L376,725 L379,720 L375,716 L368,719 L364,717 L359,687 L361,651 L365,632 L371,619 Z M 382,722 L392,733 L409,730 L423,717 L433,699 L454,687 L455,708 L460,719 L470,719 L481,713 L497,690 L499,700 L506,709 L520,710 L538,697 L551,676 L569,667 L574,660 L574,653 L556,662 L550,645 L538,646 L531,655 L531,665 L540,676 L539,680 L527,692 L520,692 L517,688 L520,665 L528,650 L537,643 L536,635 L528,630 L509,648 L499,679 L475,701 L473,688 L484,638 L504,643 L509,635 L488,623 L495,592 L491,590 L478,594 L469,615 L430,595 L412,590 L414,609 L467,630 L458,673 L439,685 L433,667 L426,666 L419,670 L414,678 L414,687 L424,699 L415,711 L404,715 L400,709 L402,691 L410,674 L421,664 L415,653 L408,654 L397,664 L386,683 L381,704 Z M 720,549 L702,554 L671,574 L646,598 L630,624 L624,644 L624,662 L630,679 L637,685 L650,686 L659,682 L672,669 L679,657 L682,656 L679,673 L671,696 L660,714 L645,727 L645,730 L656,733 L662,732 L679,712 L687,698 L701,657 L711,596 L707,595 L693,602 L678,636 L666,655 L657,663 L652,662 L646,652 L645,640 L648,628 L660,608 L681,587 L706,569 L725,559 L725,555 Z M 1085,570 L1082,566 L1054,592 L1040,589 L1061,576 L1075,551 L1070,537 L1056,535 L1033,551 L1022,577 L999,604 L1006,562 L986,571 L976,601 L966,606 L963,592 L975,570 L992,557 L1011,553 L1006,544 L993,546 L957,571 L928,614 L924,600 L931,577 L915,581 L901,615 L891,621 L888,606 L900,584 L936,567 L932,559 L923,559 L894,573 L848,629 L853,589 L828,581 L829,565 L819,562 L809,577 L814,600 L804,626 L800,621 L779,642 L785,605 L765,613 L755,643 L748,649 L742,646 L752,614 L772,599 L789,596 L786,587 L770,589 L735,614 L724,635 L723,655 L735,668 L759,654 L765,661 L780,658 L806,638 L824,597 L832,600 L827,623 L832,648 L852,642 L868,623 L872,633 L885,640 L905,626 L911,633 L922,632 L944,611 L956,625 L977,617 L977,631 L955,670 L943,708 L947,734 L962,741 L980,720 L996,628 L1019,592 L1030,607 L1051,608 L1074,592 Z M 972,663 L973,664 L973,670 L972,671 L972,679 L971,680 L971,686 L970,687 L970,692 L969,693 L969,698 L968,699 L968,703 L967,704 L967,708 L966,709 L966,712 L965,713 L965,716 L964,717 L964,719 L963,720 L963,721 L962,722 L962,723 L959,726 L957,724 L957,723 L956,722 L956,707 L957,706 L957,702 L958,701 L958,698 L959,697 L959,694 L960,693 L960,691 L961,690 L961,688 L962,687 L962,685 L963,684 L963,682 L964,681 L964,680 L965,679 L965,677 L966,676 L966,675 L967,674 L967,673 L968,672 L968,671 L969,670 L969,669 L970,668 L970,666 L971,665 L971,664 Z M 1054,551 L1056,553 L1056,554 L1057,555 L1057,560 L1056,561 L1056,563 L1055,564 L1055,565 L1054,566 L1054,567 L1050,571 L1050,572 L1048,574 L1047,574 L1044,577 L1043,577 L1041,579 L1040,579 L1039,580 L1038,579 L1038,574 L1039,573 L1039,568 L1040,567 L1040,565 L1041,564 L1041,562 L1042,561 L1042,560 L1044,558 L1044,557 L1048,553 L1049,553 L1050,552 L1051,552 L1052,551 Z M 1109,362 L1055,359 L978,375 L894,406 L724,481 L631,510 L537,525 L490,525 L449,518 L485,533 L540,541 L587,539 L642,529 L713,506 L845,444 L951,402 L1040,375 Z M 507,252 L456,252 L450,253 L444,257 L448,294 L448,459 L444,470 L444,478 L449,481 L467,481 L490,476 L507,474 L511,468 L506,447 L506,284 L508,268 L511,262 L511,255 Z M 433,196 L433,198 L432,199 L432,211 L433,212 L433,214 L436,220 L445,229 L446,229 L449,232 L453,234 L455,234 L458,236 L463,237 L464,238 L468,238 L469,239 L489,239 L490,238 L493,238 L494,237 L497,237 L498,236 L500,236 L506,233 L508,231 L509,231 L517,223 L519,219 L519,217 L520,216 L520,204 L519,203 L519,201 L516,195 L507,186 L506,186 L504,184 L494,179 L492,179 L491,178 L488,178 L487,177 L483,177 L482,176 L463,176 L462,177 L458,177 L457,178 L452,179 L446,182 L444,184 L443,184 L436,191 L436,192 Z M 723,164 L710,165 L679,176 L636,266 L606,220 L597,195 L582,193 L531,202 L533,211 L545,224 L604,328 L535,468 L565,463 L581,454 L624,362 L650,402 L662,430 L675,429 L710,417 L728,406 L705,378 L655,300 Z M 867,132 L853,128 L829,129 L810,134 L785,144 L774,152 L757,170 L744,190 L738,204 L731,232 L728,262 L730,325 L736,345 L744,362 L753,374 L768,383 L776,385 L801,383 L823,376 L844,366 L857,357 L872,342 L883,327 L894,304 L902,276 L905,256 L905,198 L901,177 L890,151 L882,141 Z M 823,149 L830,156 L833,165 L836,189 L838,194 L838,221 L839,222 L839,242 L840,243 L838,305 L835,317 L833,335 L827,352 L819,360 L811,361 L806,357 L803,352 L798,331 L797,308 L796,307 L796,221 L797,220 L797,208 L798,207 L800,180 L803,166 L806,159 L812,152 L818,149 Z M 1073,102 L1048,100 L1042,104 L1047,123 L1047,188 L1044,193 L1039,191 L1031,177 L998,146 L990,135 L986,125 L987,105 L943,108 L928,113 L927,119 L931,128 L932,316 L927,330 L928,337 L953,332 L960,327 L955,299 L955,213 L958,208 L979,231 L1017,260 L1046,290 L1046,312 L1058,314 L1075,309 L1071,292 L1072,115 L1076,107 Z M 319,104 L266,98 L189,112 L134,143 L107,183 L101,208 L107,242 L122,258 L159,261 L167,251 L151,224 L154,190 L177,149 L190,137 L198,141 L199,265 L208,275 L191,297 L200,317 L200,359 L195,363 L179,342 L164,336 L134,333 L120,337 L92,359 L72,409 L75,455 L90,493 L119,529 L158,553 L227,564 L265,560 L302,548 L333,530 L361,504 L396,442 L411,388 L416,329 L415,267 L405,203 L391,166 L371,136 L347,116 Z M 291,121 L302,130 L312,148 L324,210 L329,279 L328,351 L319,449 L303,496 L273,528 L239,540 L195,540 L152,518 L140,504 L134,483 L144,432 L160,423 L175,427 L180,417 L177,404 L158,395 L145,399 L135,409 L126,435 L130,470 L121,440 L121,421 L133,397 L155,379 L172,378 L197,392 L201,468 L188,517 L201,518 L295,482 L295,475 L281,455 L277,429 L276,300 L288,286 L277,247 L278,146 L282,128 Z M 1080,68 L984,51 L928,49 L875,52 L795,65 L665,105 L579,125 L493,136 L434,136 L446,143 L478,151 L548,151 L625,137 L780,87 L860,69 L912,62 Z"/></svg>